<?xml version="1.0" encoding="UTF-8" standalone="no"?>
<!-- Created with Inkscape (http://www.inkscape.org/) -->

<svg
   xmlns:dc="http://purl.org/dc/elements/1.1/"
   xmlns:cc="http://creativecommons.org/ns#"
   xmlns:rdf="http://www.w3.org/1999/02/22-rdf-syntax-ns#"
   xmlns:svg="http://www.w3.org/2000/svg"
   xmlns="http://www.w3.org/2000/svg"
   xmlns:xlink="http://www.w3.org/1999/xlink"
   xmlns:sodipodi="http://sodipodi.sourceforge.net/DTD/sodipodi-0.dtd"
   xmlns:inkscape="http://www.inkscape.org/namespaces/inkscape"
   version="1.1"
   id="svg2"
   width="278.66666"
   height="273.33334"
   viewBox="0 0 278.66666 273.33334"
   sodipodi:docname="cube.svg"
   inkscape:version="0.92.2 2405546, 2018-03-11">
  <metadata
     id="metadata8">
    <rdf:RDF>
      <cc:Work
         rdf:about="">
        <dc:format>image/svg+xml</dc:format>
        <dc:type
           rdf:resource="http://purl.org/dc/dcmitype/StillImage" />
        <dc:title></dc:title>
      </cc:Work>
    </rdf:RDF>
  </metadata>
  <defs
     id="defs6" />
  <path
     style="fill:#ffffff;stroke-width:1.33333337"
     d="M 90.666664,260.64113 C 35.791067,238.86919 38.600082,240.17695 36.694664,235.51381 32.122714,224.32481 -0.23077773,84.900391 1.0781375,82.027635 1.9211129,80.177506 9.7971995,75.062575 22.21097,68.303435 33.094937,62.377255 65.673444,44.584636 94.607655,28.764281 123.54187,12.943927 147.93958,0 148.82481,0 c 3.45668,0 88.13824,63.88581 89.65057,67.634548 3.03757,7.529447 40.18269,131.797212 40.18691,134.443952 0.003,1.50984 -0.74563,3.7604 -1.6623,5.00125 -1.63512,2.21339 -129.27286,58.802 -143.66666,63.6951 -9.77617,3.32334 -7.21569,3.93149 -42.666666,-10.13372 z M 251.99999,203.75356 c 3.02952,-1.21662 0.49162,-2.76373 -27.84522,-16.97433 L 192.97621,171.14354 127.8437,201.9051 c -35.822873,16.91887 -65.12832,31.06157 -65.12321,31.42824 0.0051,0.36667 13.936177,6.08387 30.957925,12.70488 l 30.948635,12.03821 62.0198,-26.49212 c 34.11089,-14.57065 63.51981,-27.09449 65.35314,-27.83075 z M 116.80098,191.2956 C 151.9271,174.70928 181.15125,160.66787 181.74352,160.09247 182.70742,159.15603 146.1351,23.45467 143.9783,19.964908 143.25724,18.798194 21.020914,84.176646 16.999137,87.880086 14.792806,89.911778 48.329999,223.91722 50.724129,222.63591 c 1.216142,-0.65085 30.950724,-14.754 66.076851,-31.34031 z m 141.84703,-6.96226 c -0.66731,-2.01667 -8.43726,-27.57584 -17.26655,-56.79816 -8.82931,-29.222318 -16.35564,-53.620716 -16.7252,-54.218662 -0.60844,-0.984486 -57.97932,-43.640596 -61.45821,-45.695112 -0.80775,-0.477023 3.53489,17.263016 9.65031,39.422309 6.1154,22.159291 14.22965,51.588775 18.03166,65.398855 l 6.91276,25.10922 30.1036,15.15261 c 34.11584,17.17215 32.367,16.51082 30.75163,11.62894 z"
     id="path12"
     inkscape:connector-curvature="0" />
</svg>
