<?xml version="1.0" encoding="UTF-8" standalone="no"?>
<!-- Created with Inkscape (http://www.inkscape.org/) -->

<svg
   xmlns:dc="http://purl.org/dc/elements/1.1/"
   xmlns:cc="http://creativecommons.org/ns#"
   xmlns:rdf="http://www.w3.org/1999/02/22-rdf-syntax-ns#"
   xmlns:svg="http://www.w3.org/2000/svg"
   xmlns="http://www.w3.org/2000/svg"
   xmlns:xlink="http://www.w3.org/1999/xlink"
   xmlns:sodipodi="http://sodipodi.sourceforge.net/DTD/sodipodi-0.dtd"
   xmlns:inkscape="http://www.inkscape.org/namespaces/inkscape"
   version="1.1"
   id="svg2"
   width="276"
   height="230.66667"
   viewBox="0 0 276 230.66667"
   sodipodi:docname="contours_pipe.svg"
   inkscape:version="0.92.2 2405546, 2018-03-11">
  <metadata
     id="metadata8">
    <rdf:RDF>
      <cc:Work
         rdf:about="">
        <dc:format>image/svg+xml</dc:format>
        <dc:type
           rdf:resource="http://purl.org/dc/dcmitype/StillImage" />
        <dc:title></dc:title>
      </cc:Work>
    </rdf:RDF>
  </metadata>
  <defs
     id="defs6" />
  <path
     style="fill:#ffffff;stroke-width:1.33333337"
     d="M 30.666667,171.33334 V 112 H 18 C -1.5399271,112 0,116.79089 0,56.000001 0,7.1111112 0.09356725,5.2397662 2.6666667,2.6666667 6.8643987,-1.5310654 269.1356,-1.5310654 273.33333,2.6666667 275.90643,5.2397662 276,7.1111112 276,56.000001 276,116.60906 277.42661,112 258.66667,112 h -12 v 59.33334 59.33333 H 239.33333 232 V 171.33334 112 H 150 68 v 59.33334 59.33333 H 60.666667 53.333333 V 171.33334 112 h -4 -4 v 59.33334 59.33333 H 38 30.666667 Z m -8,-115.333339 V 14.666667 h -4 -4 v 41.333334 41.333334 h 4 4 z m 238.666663,0 V 14.666667 h -112 -111.999997 v 41.333334 41.333334 h 111.999997 112 z"
     id="path12"
     inkscape:connector-curvature="0" />
</svg>
